<svg width="98" height="98" viewBox="0 0 98 98" fill="none" xmlns="http://www.w3.org/2000/svg">
<path d="M87.5128 58.7144C93.0823 60.1876 96.4723 65.8842 93.8358 70.9139C90.1228 77.9975 84.6611 84.1251 77.8812 88.7005C68.2116 95.2261 56.4903 98.1694 44.8111 97.0048C33.1319 95.8402 22.2553 90.6435 14.1243 82.343C5.99324 74.0424 1.13729 63.1787 0.423806 51.6922C-0.289677 40.2058 3.18578 28.8447 10.2294 19.6385C17.273 10.4322 27.426 3.98033 38.8748 1.43529C50.3236 -1.10974 62.3226 0.417821 72.7284 5.74513C83.1342 11.0724 90.1198 14.8564 95.2184 22.7038C99.2592 28.923 97.3917 37.1758 91.0472 41.1369C84.7026 45.0979 76.2836 43.2673 72.2428 37.048C69.3449 32.5878 66.6187 25.4276 61.5606 23.1909C57.9787 21.6069 54.004 20.7253 49.8192 20.7253C34.0333 20.7253 21.2363 33.2697 21.2363 48.744C21.2363 64.2182 34.0333 76.7626 49.8192 76.7626C59.3171 76.7626 67.733 72.2215 72.9306 65.2335C76.3306 60.6622 81.9408 57.2406 87.5128 58.7144Z" fill="#FF3385"/>
<path d="M87.5128 58.7144C93.0823 60.1876 96.4723 65.8842 93.8358 70.9139C90.1228 77.9975 84.6611 84.1251 77.8812 88.7005C68.2116 95.2261 56.4903 98.1694 44.8111 97.0048C33.1319 95.8402 22.2553 90.6435 14.1243 82.343C5.99324 74.0424 1.13729 63.1787 0.423806 51.6922C-0.289677 40.2058 3.18578 28.8447 10.2294 19.6385C17.273 10.4322 27.426 3.98033 38.8748 1.43529C50.3236 -1.10974 62.3226 0.417821 72.7284 5.74513C83.1342 11.0724 90.1198 14.8564 95.2184 22.7038C99.2592 28.923 97.3917 37.1758 91.0472 41.1369C84.7026 45.0979 76.2836 43.2673 72.2428 37.048C69.3449 32.5878 66.6187 25.4276 61.5606 23.1909C57.9787 21.6069 54.004 20.7253 49.8192 20.7253C34.0333 20.7253 21.2363 33.2697 21.2363 48.744C21.2363 64.2182 34.0333 76.7626 49.8192 76.7626C59.3171 76.7626 67.733 72.2215 72.9306 65.2335C76.3306 60.6622 81.9408 57.2406 87.5128 58.7144Z" fill="#FF3385"/>
<path d="M87.5128 58.7144C93.0823 60.1876 96.4723 65.8842 93.8358 70.9139C90.1228 77.9975 84.6611 84.1251 77.8812 88.7005C68.2116 95.2261 56.4903 98.1694 44.8111 97.0048C33.1319 95.8402 22.2553 90.6435 14.1243 82.343C5.99324 74.0424 1.13729 63.1787 0.423806 51.6922C-0.289677 40.2058 3.18578 28.8447 10.2294 19.6385C17.273 10.4322 27.426 3.98033 38.8748 1.43529C50.3236 -1.10974 62.3226 0.417821 72.7284 5.74513C83.1342 11.0724 90.1198 14.8564 95.2184 22.7038C99.2592 28.923 97.3917 37.1758 91.0472 41.1369C84.7026 45.0979 76.2836 43.2673 72.2428 37.048C69.3449 32.5878 66.6187 25.4276 61.5606 23.1909C57.9787 21.6069 54.004 20.7253 49.8192 20.7253C34.0333 20.7253 21.2363 33.2697 21.2363 48.744C21.2363 64.2182 34.0333 76.7626 49.8192 76.7626C59.3171 76.7626 67.733 72.2215 72.9306 65.2335C76.3306 60.6622 81.9408 57.2406 87.5128 58.7144Z" fill="url(#paint0_linear_1990_9317)"/>
<path d="M96.2733 24.6665C88.5235 15.0318 72.7284 7.76151 56.8583 20.7254C34.8879 20.7254 21.8762 29.6356 21.8762 51.6922C21.8762 73.7488 38.961 88.681 62.4043 88.681C71.0256 88.681 79.0466 86.2629 85.7429 82.1081C83.3798 84.5531 80.7484 86.7656 77.8812 88.7005C68.2116 95.2261 56.4904 98.1694 44.8111 97.0048C33.1319 95.8402 22.2553 90.6435 14.1243 82.343C5.99324 74.0424 1.13729 63.1787 0.423806 51.6922C-0.289678 40.2058 3.18578 28.8447 10.2294 19.6385C17.273 10.4322 27.426 3.98033 38.8748 1.43529C50.3236 -1.10974 62.3226 0.417821 72.7284 5.74513C83.1342 11.0724 90.1198 14.8564 95.2184 22.7038C95.6312 23.339 95.9823 23.9955 96.2733 24.6665Z" fill="#9A77E5"/>
<g style="mix-blend-mode:darken">
<path d="M96.2733 24.6665C88.5235 15.0318 72.7284 7.76151 56.8583 20.7254C34.8879 20.7254 21.8762 29.6356 21.8762 51.6922C21.8762 73.7488 38.961 88.681 62.4043 88.681C71.0256 88.681 79.0466 86.2629 85.7429 82.1081C83.3798 84.5531 80.7484 86.7656 77.8812 88.7005C68.2116 95.2261 56.4904 98.1694 44.8111 97.0048C33.1319 95.8402 22.2553 90.6435 14.1243 82.343C5.99324 74.0424 1.13729 63.1787 0.423806 51.6922C-0.289678 40.2058 3.18578 28.8447 10.2294 19.6385C17.273 10.4322 27.426 3.98033 38.8748 1.43529C50.3236 -1.10974 62.3226 0.417821 72.7284 5.74513C83.1342 11.0724 90.1198 14.8564 95.2184 22.7038C95.6312 23.339 95.9823 23.9955 96.2733 24.6665Z" fill="url(#paint1_linear_1990_9317)"/>
</g>
<path d="M0.984116 56.5929C0.713692 54.976 0.526007 53.3405 0.423623 51.6922C-0.278712 40.3852 3.07801 29.1998 9.90165 20.0716C10.01 19.9267 10.1191 19.7823 10.2292 19.6385C11.1097 18.4877 12.0387 17.3799 13.0128 16.3175C19.8313 8.88028 28.8569 3.6622 38.8746 1.43529C40.3057 1.11716 41.7454 0.862668 43.1895 0.671274C45.012 0.429733 46.8415 0.288692 48.6696 0.24708C49.7386 0.222746 50.8072 0.232413 51.8736 0.275866C59.0986 0.570269 66.2246 2.41556 72.7282 5.74513C73.3786 6.07809 74.0156 6.40502 74.6396 6.72729C83.9999 11.5613 90.4383 15.3469 95.2182 22.7038C95.7233 23.4812 96.1361 24.2904 96.4594 25.119C98.7222 30.9192 96.5985 37.671 91.047 41.1369C90.7944 41.2946 90.5384 41.4431 90.2796 41.5826C84.0389 44.9452 76.1226 43.0196 72.2426 37.048C71.5234 35.941 70.8147 34.6677 70.0784 33.3446C67.8478 29.3369 65.3631 24.8725 61.5605 23.1909C57.9785 21.6069 54.0038 20.7253 49.8191 20.7253C27.2522 20.7253 6.00963 33.5824 0.984116 56.5929Z" fill="#34117F"/>
<g style="mix-blend-mode:darken">
<path d="M0.984116 56.5929C0.713692 54.976 0.526007 53.3405 0.423623 51.6922C-0.278712 40.3852 3.07801 29.1998 9.90165 20.0716C10.01 19.9267 10.1191 19.7823 10.2292 19.6385C11.1097 18.4877 12.0387 17.3799 13.0128 16.3175C19.8313 8.88028 28.8569 3.6622 38.8746 1.43529C40.3057 1.11716 41.7454 0.862668 43.1895 0.671274C45.012 0.429733 46.8415 0.288692 48.6696 0.24708C49.7386 0.222746 50.8072 0.232413 51.8736 0.275866C59.0986 0.570269 66.2246 2.41556 72.7282 5.74513C73.3786 6.07809 74.0156 6.40502 74.6396 6.72729C83.9999 11.5613 90.4383 15.3469 95.2182 22.7038C95.7233 23.4812 96.1361 24.2904 96.4594 25.119C98.7222 30.9192 96.5985 37.671 91.047 41.1369C90.7944 41.2946 90.5384 41.4431 90.2796 41.5826C84.0389 44.9452 76.1226 43.0196 72.2426 37.048C71.5234 35.941 70.8147 34.6677 70.0784 33.3446C67.8478 29.3369 65.3631 24.8725 61.5605 23.1909C57.9785 21.6069 54.0038 20.7253 49.8191 20.7253C27.2522 20.7253 6.00963 33.5824 0.984116 56.5929Z" fill="url(#paint2_linear_1990_9317)"/>
</g>
<path d="M70.4608 34.0308C71.0619 35.1062 71.6486 36.1338 72.2426 37.048C76.2834 43.2673 84.7024 45.0979 91.047 41.1369C97.3915 37.1758 99.259 28.923 95.2182 22.7038C90.1196 14.8564 83.134 11.0724 72.7282 5.74513C63.9387 1.2453 54.0125 -0.543522 44.2413 0.543101C56.9211 7.60421 66.5154 19.6307 70.4608 34.0308Z" fill="#33D6D6"/>
<path d="M70.4608 34.0308C71.0619 35.1062 71.6486 36.1338 72.2426 37.048C76.2834 43.2673 84.7024 45.0979 91.047 41.1369C97.3915 37.1758 99.259 28.923 95.2182 22.7038C90.1196 14.8564 83.134 11.0724 72.7282 5.74513C63.9387 1.2453 54.0125 -0.543522 44.2413 0.543101C56.9211 7.60421 66.5154 19.6307 70.4608 34.0308Z" fill="#33D6D6"/>
<g style="mix-blend-mode:multiply">
<path d="M70.4608 34.0308C71.0619 35.1062 71.6486 36.1338 72.2426 37.048C76.2834 43.2673 84.7024 45.0979 91.047 41.1369C97.3915 37.1758 99.259 28.923 95.2182 22.7038C90.1196 14.8564 83.134 11.0724 72.7282 5.74513C63.9387 1.2453 54.0125 -0.543522 44.2413 0.543101C56.9211 7.60421 66.5154 19.6307 70.4608 34.0308Z" fill="url(#paint3_linear_1990_9317)"/>
</g>
<defs>
<linearGradient id="paint0_linear_1990_9317" x1="4.59844" y1="62.126" x2="88.4645" y2="82.1034" gradientUnits="userSpaceOnUse">
<stop offset="0.330198" stop-color="#99003D"/>
<stop offset="0.789552" stop-color="#99003D" stop-opacity="0"/>
</linearGradient>
<linearGradient id="paint1_linear_1990_9317" x1="45.1265" y1="7.76151" x2="17.0969" y2="78.406" gradientUnits="userSpaceOnUse">
<stop offset="0.0775871" stop-color="#240E53"/>
<stop offset="1" stop-color="#34117F" stop-opacity="0"/>
</linearGradient>
<linearGradient id="paint2_linear_1990_9317" x1="55.7917" y1="0.23401" x2="16.9325" y2="41.1548" gradientUnits="userSpaceOnUse">
<stop stop-color="#232426"/>
<stop offset="1" stop-color="#232426" stop-opacity="0"/>
</linearGradient>
<linearGradient id="paint3_linear_1990_9317" x1="61.3376" y1="8.59789" x2="51.82" y2="25.9056" gradientUnits="userSpaceOnUse">
<stop stop-color="#007A7A" stop-opacity="0.16"/>
<stop offset="1" stop-color="#007A7A"/>
</linearGradient>
</defs>
</svg>
