<svg width="12" height="12" viewBox="0 0 12 12" fill="none" xmlns="http://www.w3.org/2000/svg">
<path d="M6 0.400026L6.26 0.0960263C6.18755 0.0340546 6.09534 0 6 0C5.90466 0 5.81245 0.0340546 5.74 0.0960263L6 0.400026ZM0.4 5.20003L0.14 4.89603L0 5.01603V5.20003H0.4ZM4.4 11.6V12C4.50609 12 4.60783 11.9579 4.68284 11.8829C4.75786 11.8079 4.8 11.7061 4.8 11.6H4.4ZM7.6 11.6H7.2C7.2 11.7061 7.24214 11.8079 7.31716 11.8829C7.39217 11.9579 7.49391 12 7.6 12V11.6ZM11.6 5.20003H12V5.01603L11.86 4.89603L11.6 5.20003V5.20003ZM1.2 12H4.4V11.2H1.2V12ZM11.86 4.89603L6.26 0.0960263L5.74 0.704026L11.34 5.50403L11.86 4.89603ZM5.74 0.0960263L0.14 4.89603L0.66 5.50403L6.26 0.704026L5.74 0.0960263V0.0960263ZM4.8 11.6V9.20003H4V11.6H4.8ZM7.2 9.20003V11.6H8V9.20003H7.2ZM7.6 12H10.8V11.2H7.6V12ZM12 10.8V5.20003H11.2V10.8H12ZM0 5.20003V10.8H0.8V5.20003H0ZM6 8.00003C6.31826 8.00003 6.62348 8.12645 6.84853 8.3515C7.07357 8.57654 7.2 8.88177 7.2 9.20003H8C8 8.66959 7.78929 8.16089 7.41421 7.78581C7.03914 7.41074 6.53043 7.20003 6 7.20003V8.00003ZM6 7.20003C5.46957 7.20003 4.96086 7.41074 4.58579 7.78581C4.21071 8.16089 4 8.66959 4 9.20003H4.8C4.8 8.88177 4.92643 8.57654 5.15147 8.3515C5.37652 8.12645 5.68174 8.00003 6 8.00003V7.20003ZM10.8 12C11.1183 12 11.4235 11.8736 11.6485 11.6486C11.8736 11.4235 12 11.1183 12 10.8H11.2C11.2 10.9061 11.1579 11.0079 11.0828 11.0829C11.0078 11.1579 10.9061 11.2 10.8 11.2V12ZM1.2 11.2C1.09391 11.2 0.992172 11.1579 0.917157 11.0829C0.842143 11.0079 0.8 10.9061 0.8 10.8H0C0 11.1183 0.126428 11.4235 0.351472 11.6486C0.576516 11.8736 0.88174 12 1.2 12V11.2Z" fill="black"/>
</svg>
