<svg width="16" height="8" viewBox="0 0 16 8" fill="none" xmlns="http://www.w3.org/2000/svg">
<path d="M15.1905 4.35355C15.3857 4.15829 15.3857 3.84171 15.1905 3.64645L12.0085 0.464466C11.8132 0.269204 11.4966 0.269204 11.3014 0.464466C11.1061 0.659728 11.1061 0.97631 11.3014 1.17157L14.1298 4L11.3014 6.82843C11.1061 7.02369 11.1061 7.34027 11.3014 7.53553C11.4966 7.7308 11.8132 7.7308 12.0085 7.53553L15.1905 4.35355ZM0.582651 3.64645C0.387389 3.84171 0.387389 4.15829 0.582651 4.35355L3.76463 7.53553C3.95989 7.7308 4.27648 7.7308 4.47174 7.53553C4.667 7.34027 4.667 7.02369 4.47174 6.82843L1.64331 4L4.47174 1.17157C4.667 0.97631 4.667 0.659727 4.47174 0.464465C4.27648 0.269203 3.95989 0.269203 3.76463 0.464465L0.582651 3.64645ZM14.8369 3.5L0.936205 3.5L0.936205 4.5L14.8369 4.5L14.8369 3.5Z" fill="#571CD3"/>
</svg>
