<svg width="14" height="14" viewBox="0 0 14 14" fill="none" xmlns="http://www.w3.org/2000/svg">
<path d="M1.7619 1.55119H12.2381C12.3545 1.55119 12.4488 1.64553 12.4488 1.7619V3.04762C12.4488 3.16399 12.3545 3.25833 12.2381 3.25833H1.7619C1.64553 3.25833 1.55119 3.16399 1.55119 3.04762V1.7619C1.55119 1.64553 1.64553 1.55119 1.7619 1.55119ZM1.7619 0.925C1.2997 0.925 0.925 1.29969 0.925 1.7619V3.04762C0.925 3.50983 1.2997 3.88452 1.7619 3.88452H12.2381C12.7003 3.88452 13.075 3.50983 13.075 3.04762V1.7619C13.075 1.2997 12.7003 0.925 12.2381 0.925H1.7619ZM1.7619 6.17024H7.95238C8.06876 6.17024 8.1631 6.26458 8.1631 6.38095V12.2381C8.1631 12.3545 8.06876 12.4488 7.95238 12.4488H1.7619C1.64553 12.4488 1.55119 12.3545 1.55119 12.2381V6.38095C1.55119 6.26458 1.64553 6.17024 1.7619 6.17024ZM1.7619 5.54405C1.2997 5.54405 0.925 5.91874 0.925 6.38095V12.2381C0.925 12.7003 1.2997 13.075 1.7619 13.075H7.95238C8.41459 13.075 8.78929 12.7003 8.78929 12.2381V6.38095C8.78929 5.91874 8.41459 5.54405 7.95238 5.54405H1.7619ZM12.4488 7.09524C12.4488 7.71868 11.9527 8.21071 11.3571 8.21071C10.7616 8.21071 10.2655 7.71868 10.2655 7.09524C10.2655 6.4718 10.7616 5.97976 11.3571 5.97976C11.9527 5.97976 12.4488 6.4718 12.4488 7.09524ZM11.3571 8.83691C12.3069 8.83691 13.075 8.05611 13.075 7.09524C13.075 6.13436 12.3069 5.35357 11.3571 5.35357C10.4074 5.35357 9.63929 6.13436 9.63929 7.09524C9.63929 8.05611 10.4074 8.83691 11.3571 8.83691ZM12.4488 11.3333C12.4488 11.9568 11.9527 12.4488 11.3571 12.4488C10.7616 12.4488 10.2655 11.9568 10.2655 11.3333C10.2655 10.7099 10.7616 10.2179 11.3571 10.2179C11.9527 10.2179 12.4488 10.7099 12.4488 11.3333ZM11.3571 13.075C12.3069 13.075 13.075 12.2942 13.075 11.3333C13.075 10.3725 12.3069 9.59167 11.3571 9.59167C10.4074 9.59167 9.63929 10.3725 9.63929 11.3333C9.63929 12.2942 10.4074 13.075 11.3571 13.075Z" fill="black" stroke="black" stroke-width="0.15"/>
</svg>
