<svg width="14" height="10" viewBox="0 0 14 10" fill="none" xmlns="http://www.w3.org/2000/svg">
<path d="M13.8321 3.76829C13.7469 3.65943 13.6361 3.5708 13.5084 3.50941C13.3807 3.44803 13.2396 3.41558 13.0963 3.41463H12.1346V2.31707C12.1346 2.09067 12.0393 1.87354 11.8699 1.71345C11.7004 1.55335 11.4706 1.46341 11.2309 1.46341H6.75794C6.74396 1.46454 6.72987 1.46295 6.71656 1.45876C6.70324 1.45456 6.69097 1.44785 6.68049 1.43902L4.88614 0.170732C4.7295 0.0602996 4.5394 0.000436319 4.34396 0H0.903701C0.664043 0 0.4342 0.0899388 0.264736 0.250031C0.0952726 0.410123 6.87467e-05 0.627254 6.87467e-05 0.853659V9.63415C-0.00141393 9.70787 0.0211179 9.78024 0.0646139 9.84146C0.100947 9.89046 0.149253 9.93045 0.205435 9.95805C0.261617 9.98565 0.324016 10 0.38734 10H11.7473C11.8286 10.0001 11.908 9.97602 11.974 9.93115C12.04 9.88627 12.0894 9.82289 12.1152 9.75L13.9547 4.53659C13.9991 4.40835 14.011 4.27211 13.9898 4.13871C13.9685 4.00532 13.9145 3.87848 13.8321 3.76829ZM0.903701 0.731707H4.34396C4.35794 0.730586 4.37203 0.732171 4.38534 0.736365C4.39866 0.740558 4.41093 0.747273 4.42141 0.756098L6.21577 2.02439C6.3724 2.13482 6.5625 2.19469 6.75794 2.19512H11.2309C11.2652 2.19512 11.298 2.20797 11.3222 2.23084C11.3464 2.25371 11.36 2.28473 11.36 2.31707V3.41463H7.7713C7.59353 3.41324 7.41975 3.46441 7.27431 3.56098L5.9834 4.37195C5.96212 4.38443 5.93745 4.39078 5.9124 4.39024H2.80133C2.62092 4.39104 2.44483 4.44248 2.29543 4.53802C2.14603 4.63356 2.03005 4.76889 1.96224 4.92683L0.77461 7.73171V0.853659C0.77461 0.821315 0.788211 0.790296 0.81242 0.767426C0.836629 0.744556 0.869464 0.731707 0.903701 0.731707ZM13.2189 4.30488L11.4697 9.26829H0.961791L2.68515 5.20122C2.69327 5.17817 2.70886 5.15811 2.7297 5.14388C2.75055 5.12966 2.77561 5.12199 2.80133 5.12195H5.9124C6.09017 5.12335 6.26395 5.07218 6.4094 4.97561L7.7003 4.16463C7.72159 4.15216 7.74626 4.1458 7.7713 4.14634H13.0963C13.1164 4.14584 13.1364 4.15002 13.1544 4.15853C13.1724 4.16704 13.1879 4.17961 13.1995 4.19512C13.2118 4.21065 13.2199 4.22871 13.2233 4.24779C13.2266 4.26688 13.2251 4.28644 13.2189 4.30488Z" fill="black"/>
</svg>
