<svg width="25" height="24" viewBox="0 0 25 24" fill="none" xmlns="http://www.w3.org/2000/svg">
<path fill-rule="evenodd" clip-rule="evenodd" d="M4.5 2H20.5C21.6046 2 22.5 2.89543 22.5 4V20C22.5 21.1046 21.6046 22 20.5 22H4.5C3.39543 22 2.5 21.1046 2.5 20V4C2.5 2.89543 3.39543 2 4.5 2ZM4.5 4V15.5858L8.5 11.5858L12 15.0858L18.5 8.58579L20.5 10.5858V4H4.5ZM4.5 20V18.4142L8.5 14.4142L14.0858 20H4.5ZM20.5 20H16.9142L13.4142 16.5L18.5 11.4142L20.5 13.4142V20ZM14.5 8C14.5 6.34315 13.1569 5 11.5 5C9.84315 5 8.5 6.34315 8.5 8C8.5 9.65685 9.84315 11 11.5 11C13.1569 11 14.5 9.65685 14.5 8ZM10.5 8C10.5 7.44772 10.9477 7 11.5 7C12.0523 7 12.5 7.44772 12.5 8C12.5 8.55228 12.0523 9 11.5 9C10.9477 9 10.5 8.55228 10.5 8Z" fill="white"/>
</svg>
