<svg width="20" height="12" viewBox="0 0 20 12" fill="none" xmlns="http://www.w3.org/2000/svg">
<path d="M7.93538 8.20952L13.3369 5.82857L7.93538 3.41905V8.20952ZM10 0C11.2499 0 12.4571 0.0142857 13.6215 0.0428571C14.7858 0.0714286 15.6396 0.101587 16.1827 0.133333L16.9974 0.171429C17.0048 0.171429 17.0681 0.17619 17.1871 0.185714C17.3061 0.195238 17.3917 0.204762 17.4438 0.214286C17.4959 0.22381 17.5833 0.238095 17.706 0.257143C17.8288 0.27619 17.9348 0.301587 18.0241 0.333333C18.1134 0.365079 18.2175 0.406349 18.3366 0.457143C18.4556 0.507937 18.571 0.569841 18.6826 0.642857C18.7942 0.715873 18.902 0.8 19.0062 0.895238C19.0508 0.933333 19.1085 0.992064 19.1792 1.07143C19.2499 1.15079 19.3577 1.33651 19.5028 1.62857C19.6479 1.92063 19.7465 2.24127 19.7986 2.59048C19.8581 2.99683 19.9046 3.43016 19.9381 3.89048C19.9715 4.35079 19.992 4.71111 19.9994 4.97143V6.64762C20.0069 7.56825 19.9399 8.48889 19.7986 9.40952C19.7465 9.75873 19.6535 10.0746 19.5196 10.3571C19.3856 10.6397 19.2666 10.8349 19.1624 10.9429L19.0062 11.1048C18.902 11.2 18.7942 11.2841 18.6826 11.3571C18.571 11.4302 18.4556 11.4905 18.3366 11.5381C18.2175 11.5857 18.1134 11.6254 18.0241 11.6571C17.9348 11.6889 17.8288 11.7143 17.706 11.7333C17.5833 11.7524 17.494 11.7667 17.4382 11.7762C17.3824 11.7857 17.2968 11.7952 17.1815 11.8048C17.0662 11.8143 17.0048 11.819 16.9974 11.819C15.1299 11.9397 12.7975 12 10 12C8.45991 11.9873 7.12256 11.9667 5.98795 11.9381C4.85334 11.9095 4.10747 11.8857 3.75035 11.8667L3.2035 11.8286L2.80174 11.7905C2.5339 11.7587 2.33116 11.727 2.19352 11.6952C2.05587 11.6635 1.86615 11.5968 1.62435 11.4952C1.38255 11.3937 1.17237 11.2635 0.993806 11.1048C0.949166 11.0667 0.891505 11.0079 0.820825 10.9286C0.750144 10.8492 0.642263 10.6635 0.497182 10.3714C0.352101 10.0794 0.25352 9.75873 0.20144 9.40952C0.141919 9.00317 0.0954188 8.56984 0.0619385 8.10952C0.0284582 7.64921 0.00799807 7.28889 0.000558005 7.02857V5.35238C-0.00688206 4.43175 0.0600785 3.51111 0.20144 2.59048C0.25352 2.24127 0.346521 1.9254 0.480442 1.64286C0.614363 1.36032 0.733404 1.16508 0.837565 1.05714L0.993806 0.895238C1.09797 0.8 1.20585 0.715873 1.31745 0.642857C1.42905 0.569841 1.54437 0.507937 1.66341 0.457143C1.78245 0.406349 1.88661 0.365079 1.97589 0.333333C2.06518 0.301587 2.1712 0.27619 2.29396 0.257143C2.41672 0.238095 2.50414 0.22381 2.55622 0.214286C2.6083 0.204762 2.69386 0.195238 2.8129 0.185714C2.93194 0.17619 2.99518 0.171429 3.00262 0.171429C4.87008 0.0571429 7.20254 0 10 0Z" fill="#69696A"/>
</svg>
