<svg width="20" height="20" viewBox="0 0 20 20" fill="none" xmlns="http://www.w3.org/2000/svg">
<path d="M16.25 0C17.283 0 18.1662 0.366753 18.8997 1.10026C19.6332 1.83377 20 2.71701 20 3.75V16.25C20 17.283 19.6332 18.1662 18.8997 18.8997C18.1662 19.6332 17.283 20 16.25 20H13.8021V12.2526H16.3932L16.7839 9.23177H13.8021V7.30469C13.8021 6.81858 13.9041 6.45399 14.1081 6.21094C14.3121 5.96788 14.7092 5.84635 15.2995 5.84635L16.888 5.83333V3.13802C16.3411 3.0599 15.5686 3.02083 14.5703 3.02083C13.3898 3.02083 12.4457 3.36806 11.7383 4.0625C11.0308 4.75694 10.6771 5.73785 10.6771 7.00521V9.23177H8.07292V12.2526H10.6771V20H3.75C2.71701 20 1.83377 19.6332 1.10026 18.8997C0.366753 18.1662 0 17.283 0 16.25V3.75C0 2.71701 0.366753 1.83377 1.10026 1.10026C1.83377 0.366753 2.71701 0 3.75 0H16.25Z" fill="#69696A"/>
</svg>
