<svg width="34" height="24" viewBox="0 0 34 24" fill="none" xmlns="http://www.w3.org/2000/svg">
<path fill-rule="evenodd" clip-rule="evenodd" d="M14 1H20C21.1046 1 22 1.89543 22 3V4H25C26.1046 4 27 4.89543 27 6V8C27 9.10457 26.1046 10 25 10H24.9199L24 21C24 22.1046 23.1046 23 22 23H12C10.8954 23 10 22.1046 10.0035 21.083L9.07987 10H9C7.89543 10 7 9.10457 7 8V6C7 4.89543 7.89543 4 9 4H12V3C12 1.89543 12.8954 1 14 1ZM9 6H12H22H25V8H9V6ZM11.0865 10H22.9132L22.0035 20.917L22 21H12L11.0865 10ZM20 3V4H14V3H20ZM18.4142 15L20.7071 17.2929L19.2929 18.7071L17 16.4142L14.7071 18.7071L13.2929 17.2929L15.5858 15L13.2929 12.7071L14.7071 11.2929L17 13.5858L19.2929 11.2929L20.7071 12.7071L18.4142 15Z" fill="#7B7C7D"/>
</svg>
