<svg width="23" height="19" viewBox="0 0 23 19" fill="none" xmlns="http://www.w3.org/2000/svg">
<path fill-rule="evenodd" clip-rule="evenodd" d="M6.87843 3.69889C6.94927 3.6004 7.02796 3.47982 7.1283 3.31724C7.16497 3.25783 7.26496 3.09285 7.33939 2.97005L7.42321 2.83193C8.25219 1.4759 8.8548 0.853516 9.94141 0.853516H14.9414V2.85352H9.94141C9.85468 2.85352 9.58191 3.13524 9.1296 3.8751L9.05682 3.99506L9.05665 3.99535C8.9816 4.11918 8.87237 4.29941 8.83028 4.36761C8.70732 4.56683 8.60515 4.72339 8.50202 4.86677C8.05378 5.48992 7.60575 5.85352 6.94141 5.85352H3.94141C3.38912 5.85352 2.94141 6.30123 2.94141 6.85352V15.8535C2.94141 16.4058 3.38912 16.8535 3.94141 16.8535H19.9414C20.4937 16.8535 20.9414 16.4058 20.9414 15.8535V9.85352H22.9414V15.8535C22.9414 17.5104 21.5983 18.8535 19.9414 18.8535H3.94141C2.28455 18.8535 0.941406 17.5104 0.941406 15.8535V6.85352C0.941406 5.19666 2.28455 3.85352 3.94141 3.85352H6.7576C6.7909 3.81546 6.8317 3.76384 6.87843 3.69889ZM16.9414 5.85352V3.85352H18.9414V1.85352H20.9414V3.85352H22.9414V5.85352H20.9414V7.85352H18.9414V5.85352H16.9414ZM11.9414 15.8535C9.17998 15.8535 6.94141 13.6149 6.94141 10.8535C6.94141 8.09209 9.17998 5.85352 11.9414 5.85352C14.7028 5.85352 16.9414 8.09209 16.9414 10.8535C16.9414 13.6149 14.7028 15.8535 11.9414 15.8535ZM11.9414 13.8535C13.5983 13.8535 14.9414 12.5104 14.9414 10.8535C14.9414 9.19666 13.5983 7.85352 11.9414 7.85352C10.2846 7.85352 8.94141 9.19666 8.94141 10.8535C8.94141 12.5104 10.2846 13.8535 11.9414 13.8535Z" fill="#7B7C7D"/>
</svg>
