<svg width="137" height="32" viewBox="0 0 137 32" fill="none" xmlns="http://www.w3.org/2000/svg">
<path d="M26.9028 19.0767C28.6215 19.5313 29.6676 21.2892 28.854 22.8413C27.7082 25.0272 26.0228 26.9181 23.9306 28.33C20.9467 30.3437 17.3297 31.252 13.7256 30.8926C10.1215 30.5333 6.76518 28.9296 4.25604 26.3682C1.7469 23.8067 0.248417 20.4543 0.0282451 16.9098C-0.191927 13.3652 0.880555 9.8593 3.05412 7.01837C5.22769 4.17743 8.36077 2.18646 11.8937 1.4011C15.4267 0.61573 19.1294 1.08712 22.3405 2.73106C25.5516 4.375 27.7073 5.54269 29.2807 7.96428C30.5276 9.88347 29.9513 12.4302 27.9935 13.6525C26.0356 14.8748 23.4376 14.3099 22.1907 12.3907C21.2964 11.0144 20.4551 8.80482 18.8943 8.11459C17.789 7.62579 16.5624 7.35376 15.2711 7.35376C10.3997 7.35376 6.45071 11.2248 6.45071 16C6.45071 20.7751 10.3997 24.6462 15.2711 24.6462C18.202 24.6462 20.799 23.2448 22.4029 21.0884C23.4521 19.6778 25.1834 18.6219 26.9028 19.0767Z" fill="#FF3385"/>
<path d="M26.9028 19.0767C28.6215 19.5313 29.6676 21.2892 28.854 22.8413C27.7082 25.0272 26.0228 26.9181 23.9306 28.33C20.9467 30.3437 17.3297 31.252 13.7256 30.8926C10.1215 30.5333 6.76518 28.9296 4.25604 26.3682C1.7469 23.8067 0.248417 20.4543 0.0282451 16.9098C-0.191927 13.3652 0.880555 9.8593 3.05412 7.01837C5.22769 4.17743 8.36077 2.18646 11.8937 1.4011C15.4267 0.61573 19.1294 1.08712 22.3405 2.73106C25.5516 4.375 27.7073 5.54269 29.2807 7.96428C30.5276 9.88347 29.9513 12.4302 27.9935 13.6525C26.0356 14.8748 23.4376 14.3099 22.1907 12.3907C21.2964 11.0144 20.4551 8.80482 18.8943 8.11459C17.789 7.62579 16.5624 7.35376 15.2711 7.35376C10.3997 7.35376 6.45071 11.2248 6.45071 16C6.45071 20.7751 10.3997 24.6462 15.2711 24.6462C18.202 24.6462 20.799 23.2448 22.4029 21.0884C23.4521 19.6778 25.1834 18.6219 26.9028 19.0767Z" fill="#FF3385"/>
<path d="M26.9028 19.0767C28.6215 19.5313 29.6676 21.2892 28.854 22.8413C27.7082 25.0272 26.0228 26.9181 23.9306 28.33C20.9467 30.3437 17.3297 31.252 13.7256 30.8926C10.1215 30.5333 6.76518 28.9296 4.25604 26.3682C1.7469 23.8067 0.248417 20.4543 0.0282451 16.9098C-0.191927 13.3652 0.880555 9.8593 3.05412 7.01837C5.22769 4.17743 8.36077 2.18646 11.8937 1.4011C15.4267 0.61573 19.1294 1.08712 22.3405 2.73106C25.5516 4.375 27.7073 5.54269 29.2807 7.96428C30.5276 9.88347 29.9513 12.4302 27.9935 13.6525C26.0356 14.8748 23.4376 14.3099 22.1907 12.3907C21.2964 11.0144 20.4551 8.80482 18.8943 8.11459C17.789 7.62579 16.5624 7.35376 15.2711 7.35376C10.3997 7.35376 6.45071 11.2248 6.45071 16C6.45071 20.7751 10.3997 24.6462 15.2711 24.6462C18.202 24.6462 20.799 23.2448 22.4029 21.0884C23.4521 19.6778 25.1834 18.6219 26.9028 19.0767Z" fill="url(#paint0_linear_2261_13803)"/>
<path d="M29.6062 8.56994C27.2147 5.59681 22.3405 3.35329 17.4432 7.35377C10.6634 7.35377 6.64818 10.1034 6.64818 16.9098C6.64818 23.7161 11.9203 28.324 19.1546 28.324C21.8151 28.324 24.2903 27.5778 26.3566 26.2957C25.6274 27.0502 24.8154 27.733 23.9306 28.33C20.9467 30.3437 17.3297 31.252 13.7256 30.8926C10.1215 30.5333 6.76518 28.9296 4.25604 26.3682C1.7469 23.8067 0.248417 20.4543 0.0282451 16.9098C-0.191927 13.3652 0.880555 9.8593 3.05412 7.01837C5.22769 4.17743 8.36077 2.18646 11.8937 1.4011C15.4267 0.61573 19.1294 1.08712 22.3405 2.73106C25.5516 4.375 27.7073 5.54269 29.2807 7.96428C29.408 8.16031 29.5164 8.36289 29.6062 8.56994Z" fill="#9A77E5"/>
<g style="mix-blend-mode:darken">
<path d="M29.6062 8.56994C27.2147 5.59681 22.3405 3.35329 17.4432 7.35377C10.6634 7.35377 6.64818 10.1034 6.64818 16.9098C6.64818 23.7161 11.9203 28.324 19.1546 28.324C21.8151 28.324 24.2903 27.5778 26.3566 26.2957C25.6274 27.0502 24.8154 27.7329 23.9306 28.33C20.9467 30.3437 17.3297 31.252 13.7256 30.8926C10.1215 30.5333 6.76518 28.9296 4.25604 26.3682C1.7469 23.8067 0.248417 20.4543 0.0282451 16.9098C-0.191927 13.3652 0.880555 9.8593 3.05412 7.01837C5.22769 4.17743 8.36077 2.18646 11.8937 1.4011C15.4267 0.61573 19.1294 1.08712 22.3405 2.73106C25.5516 4.375 27.7073 5.54269 29.2807 7.96428C29.408 8.16031 29.5164 8.36289 29.6062 8.56994Z" fill="url(#paint1_linear_2261_13803)"/>
</g>
<path d="M0.201206 18.422C0.117757 17.9231 0.0598395 17.4184 0.0282451 16.9097C-0.188487 13.4206 0.847355 9.96887 2.95304 7.15202C2.98647 7.10731 3.02016 7.06275 3.05412 7.01836C3.32582 6.66325 3.61251 6.32141 3.91309 5.99355C6.01721 3.69852 8.80239 2.08829 11.8937 1.4011C12.3354 1.30293 12.7796 1.22439 13.2253 1.16533C13.7877 1.09079 14.3522 1.04727 14.9163 1.03443C15.2462 1.02692 15.576 1.0299 15.9051 1.04331C18.1346 1.13416 20.3336 1.7036 22.3405 2.73106C22.5412 2.8338 22.7378 2.93469 22.9304 3.03414C25.8188 4.52586 27.8056 5.69404 29.2807 7.96428C29.4365 8.20418 29.5639 8.45388 29.6637 8.70958C30.362 10.4994 29.7066 12.583 27.9935 13.6525C27.9155 13.7012 27.8365 13.747 27.7567 13.79C25.8309 14.8277 23.388 14.2335 22.1907 12.3907C21.9687 12.0491 21.7501 11.6562 21.5228 11.2479C20.8345 10.0112 20.0678 8.63351 18.8943 8.11459C17.789 7.62579 16.5624 7.35376 15.2711 7.35376C8.3072 7.35376 1.75202 11.3213 0.201206 18.422Z" fill="#34117F"/>
<g style="mix-blend-mode:darken">
<path d="M0.201206 18.422C0.117757 17.9231 0.0598395 17.4184 0.0282451 16.9097C-0.188487 13.4206 0.847355 9.96887 2.95304 7.15202C2.98647 7.10731 3.02016 7.06275 3.05412 7.01836C3.32582 6.66325 3.61251 6.32141 3.91309 5.99355C6.01721 3.69852 8.80239 2.08829 11.8937 1.4011C12.3354 1.30293 12.7796 1.22439 13.2253 1.16533C13.7877 1.09079 14.3522 1.04727 14.9163 1.03443C15.2462 1.02692 15.576 1.0299 15.9051 1.04331C18.1346 1.13416 20.3336 1.7036 22.3405 2.73106C22.5412 2.8338 22.7378 2.93469 22.9304 3.03414C25.8188 4.52586 27.8056 5.69404 29.2807 7.96428C29.4365 8.20418 29.5639 8.45388 29.6637 8.70958C30.362 10.4994 29.7066 12.583 27.9935 13.6525C27.9155 13.7012 27.8365 13.747 27.7567 13.79C25.8309 14.8277 23.388 14.2335 22.1907 12.3907C21.9687 12.0491 21.7501 11.6562 21.5228 11.2479C20.8345 10.0112 20.0678 8.63351 18.8943 8.11459C17.789 7.62579 16.5624 7.35376 15.2711 7.35376C8.3072 7.35376 1.75202 11.3213 0.201206 18.422Z" fill="url(#paint2_linear_2261_13803)"/>
</g>
<path d="M21.6408 11.4596C21.8263 11.7915 22.0074 12.1086 22.1906 12.3907C23.4376 14.3099 26.0356 14.8748 27.9934 13.6525C29.9513 12.4302 30.5276 9.88347 29.2806 7.96428C27.7073 5.54269 25.5516 4.375 22.3405 2.73106C19.6282 1.34247 16.5651 0.790459 13.5498 1.12578C17.4626 3.30475 20.4233 7.01596 21.6408 11.4596Z" fill="#33D6D6"/>
<path d="M21.6408 11.4596C21.8263 11.7915 22.0074 12.1086 22.1906 12.3907C23.4376 14.3099 26.0356 14.8748 27.9934 13.6525C29.9513 12.4302 30.5276 9.88347 29.2806 7.96428C27.7073 5.54269 25.5516 4.375 22.3405 2.73106C19.6282 1.34247 16.5651 0.790459 13.5498 1.12578C17.4626 3.30475 20.4233 7.01596 21.6408 11.4596Z" fill="#33D6D6"/>
<g style="mix-blend-mode:multiply">
<path d="M21.6408 11.4596C21.8263 11.7915 22.0074 12.1086 22.1906 12.3907C23.4376 14.3099 26.0356 14.8748 27.9934 13.6525C29.9513 12.4302 30.5276 9.88347 29.2806 7.96428C27.7073 5.54269 25.5516 4.375 22.3405 2.73106C19.6282 1.34247 16.5651 0.790459 13.5498 1.12578C17.4626 3.30475 20.4233 7.01596 21.6408 11.4596Z" fill="url(#paint3_linear_2261_13803)"/>
</g>
<path d="M43.6945 21.725C42.9226 21.725 42.1983 21.582 41.5217 21.2961C40.8546 21.0007 40.2685 20.5957 39.7635 20.0811C39.2679 19.5569 38.8772 18.947 38.5913 18.2513C38.3149 17.5557 38.1768 16.8028 38.1768 15.9928C38.1768 15.1923 38.3149 14.449 38.5913 13.7628C38.8772 13.0671 39.2679 12.462 39.7635 11.9474C40.2685 11.4232 40.8546 11.0135 41.5217 10.718C42.1888 10.4226 42.9131 10.2749 43.6945 10.2749C44.4283 10.2749 45.0573 10.3702 45.5814 10.5608C46.1151 10.7514 46.6488 11.0659 47.1824 11.5042C47.2587 11.5614 47.3158 11.6234 47.354 11.6901C47.4016 11.7473 47.4302 11.8092 47.4397 11.8759C47.4588 11.9331 47.4683 12.0046 47.4683 12.0903C47.4683 12.2714 47.4016 12.4239 47.2682 12.5478C47.1443 12.6621 46.9918 12.7288 46.8108 12.7479C46.6297 12.7574 46.4534 12.6955 46.2819 12.5621C45.9293 12.2571 45.5624 12.0236 45.1812 11.8616C44.8095 11.6996 44.314 11.6186 43.6945 11.6186C43.1323 11.6186 42.6034 11.733 42.1078 11.9617C41.6123 12.1904 41.1739 12.5049 40.7927 12.9051C40.421 13.3054 40.1304 13.7723 39.9207 14.306C39.7111 14.8301 39.6062 15.3924 39.6062 15.9928C39.6062 16.6027 39.7111 17.1745 39.9207 17.7081C40.1304 18.2323 40.421 18.6945 40.7927 19.0947C41.1739 19.495 41.6123 19.8095 42.1078 20.0382C42.6034 20.2574 43.1323 20.367 43.6945 20.367C44.1805 20.367 44.638 20.286 45.0668 20.124C45.5052 19.9524 45.9245 19.7189 46.3247 19.4235C46.4963 19.2996 46.663 19.2472 46.8251 19.2663C46.9966 19.2758 47.1395 19.3425 47.2539 19.4664C47.3683 19.5808 47.4254 19.7428 47.4254 19.9524C47.4254 20.0477 47.4064 20.143 47.3683 20.2383C47.3301 20.3241 47.273 20.4051 47.1967 20.4813C46.6821 20.8911 46.1294 21.2008 45.5385 21.4105C44.9572 21.6201 44.3425 21.725 43.6945 21.725Z" fill="#232426"/>
<path d="M52.5478 21.582C52.3382 21.582 52.1619 21.5105 52.0189 21.3676C51.876 21.2246 51.8045 21.0483 51.8045 20.8387V11.1612C51.8045 10.942 51.876 10.7657 52.0189 10.6323C52.1619 10.4893 52.3382 10.4178 52.5478 10.4178H55.1209C55.8356 10.4178 56.4694 10.5703 57.0221 10.8753C57.5748 11.1707 58.0037 11.5805 58.3086 12.1046C58.6231 12.6288 58.7803 13.2387 58.7803 13.9343C58.7803 14.5824 58.6231 15.1589 58.3086 15.664C58.0037 16.1691 57.5748 16.5646 57.0221 16.8505C56.4694 17.1364 55.8356 17.2793 55.1209 17.2793H53.2912V20.8387C53.2912 21.0483 53.2197 21.2246 53.0768 21.3676C52.9433 21.5105 52.767 21.582 52.5478 21.582ZM58.4802 21.582C58.3467 21.582 58.2228 21.5534 58.1085 21.4962C58.0037 21.4391 57.9131 21.3485 57.8369 21.2246L55.2638 17.0792L56.7076 16.6646L59.0519 20.4384C59.2235 20.7148 59.2473 20.9769 59.1234 21.2246C58.9995 21.4629 58.7851 21.582 58.4802 21.582ZM53.2912 15.907H55.1209C55.5593 15.907 55.9452 15.826 56.2788 15.664C56.6123 15.4925 56.8744 15.259 57.065 14.9636C57.2556 14.6586 57.3509 14.3155 57.3509 13.9343C57.3509 13.515 57.2556 13.1434 57.065 12.8194C56.8744 12.4953 56.6123 12.2428 56.2788 12.0617C55.9452 11.8807 55.5593 11.7901 55.1209 11.7901H53.2912V15.907Z" fill="#232426"/>
<path d="M63.581 21.582C63.3714 21.582 63.1951 21.5105 63.0521 21.3676C62.9092 21.2246 62.8377 21.0483 62.8377 20.8387V11.1612C62.8377 10.942 62.9092 10.7657 63.0521 10.6323C63.1951 10.4893 63.3714 10.4178 63.581 10.4178H70.0422C70.2614 10.4178 70.4377 10.4846 70.5711 10.618C70.7045 10.7419 70.7712 10.9086 70.7712 11.1183C70.7712 11.3184 70.7045 11.4804 70.5711 11.6043C70.4377 11.7282 70.2614 11.7901 70.0422 11.7901H64.3243V15.2638H68.4269C68.6461 15.2638 68.8224 15.3305 68.9558 15.4639C69.0892 15.5878 69.1559 15.7498 69.1559 15.9499C69.1559 16.15 69.0892 16.3168 68.9558 16.4502C68.8224 16.5741 68.6461 16.636 68.4269 16.636H64.3243V20.2097H70.0422C70.2614 20.2097 70.4377 20.2717 70.5711 20.3956C70.7045 20.5194 70.7712 20.6814 70.7712 20.8816C70.7712 21.0912 70.7045 21.2628 70.5711 21.3962C70.4377 21.5201 70.2614 21.582 70.0422 21.582H63.581Z" fill="#232426"/>
<path d="M74.4049 21.582C74.1381 21.582 73.9332 21.4677 73.7902 21.2389C73.6473 21.0102 73.633 20.7672 73.7473 20.5099L77.7641 10.9182C77.9071 10.5846 78.1406 10.4178 78.4646 10.4178C78.8077 10.4178 79.0411 10.5846 79.165 10.9182L83.1961 20.5385C83.301 20.8053 83.2819 21.0483 83.139 21.2675C83.0055 21.4772 82.8007 21.582 82.5243 21.582C82.3813 21.582 82.2432 21.5439 82.1097 21.4677C81.9859 21.3819 81.8953 21.2675 81.8381 21.1246L78.2931 12.319H78.6933L75.091 21.1246C75.0243 21.2771 74.9243 21.3914 74.7908 21.4677C74.667 21.5439 74.5383 21.582 74.4049 21.582ZM75.1625 19.1233L75.7343 17.894H81.3378L81.9096 19.1233H75.1625Z" fill="#232426"/>
<path d="M89.0576 21.582C88.848 21.582 88.6717 21.5105 88.5287 21.3676C88.3858 21.2246 88.3143 21.0483 88.3143 20.8387V10.4178H89.801V20.8387C89.801 21.0483 89.7295 21.2246 89.5865 21.3676C89.4436 21.5105 89.2673 21.582 89.0576 21.582ZM85.2267 11.7901C85.0265 11.7901 84.8598 11.7282 84.7263 11.6043C84.6025 11.4709 84.5405 11.3041 84.5405 11.104C84.5405 10.9039 84.6025 10.7419 84.7263 10.618C84.8598 10.4846 85.0265 10.4178 85.2267 10.4178H92.8743C93.0744 10.4178 93.2365 10.4846 93.3603 10.618C93.4938 10.7419 93.5605 10.9039 93.5605 11.104C93.5605 11.3041 93.4938 11.4709 93.3603 11.6043C93.2365 11.7282 93.0744 11.7901 92.8743 11.7901H85.2267Z" fill="#232426"/>
<path d="M97.9508 21.582C97.7412 21.582 97.5649 21.5105 97.4219 21.3676C97.279 21.2246 97.2075 21.0483 97.2075 20.8387V11.1612C97.2075 10.942 97.279 10.7657 97.4219 10.6323C97.5649 10.4893 97.7412 10.4178 97.9508 10.4178C98.17 10.4178 98.3463 10.4893 98.4797 10.6323C98.6227 10.7657 98.6942 10.942 98.6942 11.1612V20.8387C98.6942 21.0483 98.6227 21.2246 98.4797 21.3676C98.3463 21.5105 98.17 21.582 97.9508 21.582Z" fill="#232426"/>
<path d="M112.613 21.3533L109.625 18.3657C109.473 18.2132 109.397 18.0465 109.397 17.8654C109.397 17.6748 109.473 17.5033 109.625 17.3508C109.778 17.1983 109.945 17.1221 110.126 17.1221C110.316 17.1221 110.488 17.1983 110.64 17.3508L113.628 20.3527C113.771 20.5051 113.842 20.6719 113.842 20.853C113.852 21.034 113.78 21.2008 113.628 21.3533C113.476 21.5058 113.304 21.582 113.113 21.582C112.932 21.582 112.766 21.5058 112.613 21.3533ZM108.711 21.725C107.872 21.725 107.105 21.5868 106.409 21.3104C105.713 21.0245 105.113 20.629 104.608 20.124C104.112 19.6093 103.727 19.0042 103.45 18.3085C103.174 17.6033 103.036 16.8314 103.036 15.9928C103.036 15.1542 103.174 14.387 103.45 13.6913C103.727 12.9957 104.112 12.3953 104.608 11.8902C105.113 11.3756 105.713 10.9801 106.409 10.7037C107.105 10.4178 107.872 10.2749 108.711 10.2749C109.549 10.2749 110.312 10.4178 110.998 10.7037C111.693 10.9801 112.294 11.3756 112.799 11.8902C113.304 12.3953 113.695 12.9957 113.971 13.6913C114.247 14.387 114.386 15.1542 114.386 15.9928C114.386 16.8314 114.247 17.6033 113.971 18.3085C113.695 19.0042 113.304 19.6093 112.799 20.124C112.294 20.629 111.693 21.0245 110.998 21.3104C110.312 21.5868 109.549 21.725 108.711 21.725ZM108.711 20.3813C109.33 20.3813 109.897 20.2717 110.412 20.0525C110.936 19.8238 111.388 19.514 111.77 19.1233C112.151 18.7231 112.442 18.2561 112.642 17.7224C112.851 17.1888 112.956 16.6122 112.956 15.9928C112.956 15.3733 112.851 14.7968 112.642 14.2631C112.442 13.7295 112.151 13.2673 111.77 12.8765C111.388 12.4763 110.936 12.1666 110.412 11.9474C109.897 11.7282 109.33 11.6186 108.711 11.6186C108.091 11.6186 107.519 11.7282 106.995 11.9474C106.481 12.1666 106.033 12.4763 105.652 12.8765C105.28 13.2673 104.989 13.7295 104.78 14.2631C104.57 14.7968 104.465 15.3733 104.465 15.9928C104.465 16.6122 104.57 17.1888 104.78 17.7224C104.989 18.2561 105.28 18.7231 105.652 19.1233C106.033 19.514 106.481 19.8238 106.995 20.0525C107.519 20.2717 108.091 20.3813 108.711 20.3813Z" fill="#232426"/>
<path d="M117.993 21.582C117.726 21.582 117.521 21.4677 117.378 21.2389C117.236 21.0102 117.221 20.7672 117.336 20.5099L121.352 10.9182C121.495 10.5846 121.729 10.4178 122.053 10.4178C122.396 10.4178 122.629 10.5846 122.753 10.9182L126.784 20.5385C126.889 20.8053 126.87 21.0483 126.727 21.2675C126.594 21.4772 126.389 21.582 126.113 21.582C125.97 21.582 125.831 21.5439 125.698 21.4677C125.574 21.3819 125.484 21.2675 125.426 21.1246L121.881 12.319H122.282L118.679 21.1246C118.613 21.2771 118.513 21.3914 118.379 21.4677C118.255 21.5439 118.127 21.582 117.993 21.582ZM118.751 19.1233L119.323 17.894H124.926L125.498 19.1233H118.751Z" fill="#232426"/>
<path fill-rule="evenodd" clip-rule="evenodd" d="M41.4087 21.5516C40.7097 21.242 40.0942 20.8169 39.5642 20.2768L39.5605 20.2731C39.0404 19.7229 38.6313 19.0836 38.333 18.3576L38.3317 18.3545C38.0413 17.6234 37.8975 16.8353 37.8975 15.9928C37.8975 15.1595 38.0414 14.3804 38.3322 13.6585L38.333 13.6567C38.6315 12.9302 39.0411 12.2949 39.5623 11.7537C40.0925 11.2034 40.7086 10.7727 41.4087 10.4627C42.1138 10.1504 42.877 9.99561 43.6946 9.99561C44.4509 9.99561 45.1136 10.0936 45.6762 10.298C46.2442 10.501 46.8037 10.8324 47.3553 11.2848C47.4461 11.3537 47.5252 11.4348 47.5841 11.5305C47.6478 11.6124 47.6928 11.7065 47.7122 11.8112C47.7382 11.8996 47.7477 11.9948 47.7477 12.0904C47.7477 12.3496 47.6483 12.5761 47.4583 12.7525L47.4577 12.7531C47.286 12.9116 47.0759 13.0009 46.84 13.0257L46.8328 13.0265L46.8255 13.0269C46.5646 13.0406 46.3239 12.9487 46.1104 12.7826L46.1047 12.7781L46.0992 12.7734C45.7658 12.4851 45.4233 12.2681 45.0719 12.1187L45.0696 12.1177C44.7467 11.977 44.2939 11.898 43.6946 11.898C43.1715 11.898 42.6826 12.0041 42.2249 12.2154C41.7623 12.4289 41.3532 12.7221 40.9963 13.0965C40.6501 13.4696 40.3781 13.906 40.1808 14.4082L40.1801 14.4098C39.9845 14.8989 39.8856 15.4257 39.8856 15.9928C39.8856 16.5697 39.9846 17.1064 40.1804 17.6052C40.3775 18.0977 40.6495 18.5297 40.9962 18.9034C41.3526 19.2773 41.7611 19.5702 42.2229 19.7837C42.6809 19.9859 43.1705 20.0877 43.6946 20.0877C44.1483 20.0877 44.5716 20.0123 44.9666 19.8633C45.3803 19.7012 45.7777 19.4802 46.1589 19.1988L46.1612 19.1971C46.3697 19.0465 46.6021 18.9615 46.849 18.9879C47.0862 19.003 47.2933 19.0992 47.4555 19.273C47.6335 19.4535 47.7048 19.6936 47.7048 19.9525C47.7048 20.086 47.678 20.2164 47.6277 20.3421L47.6257 20.347L47.6236 20.3518C47.5696 20.4732 47.4912 20.582 47.3943 20.6789L47.3831 20.6901L47.3708 20.6999C46.8334 21.1278 46.2538 21.453 45.6327 21.6735C45.0197 21.8945 44.3731 22.0043 43.6946 22.0043C42.8872 22.0043 42.1258 21.8546 41.413 21.5535L41.4087 21.5516ZM45.5386 21.4105C46.1294 21.2009 46.6822 20.8911 47.1968 20.4814C47.273 20.4051 47.3302 20.3241 47.3683 20.2384C47.4064 20.1431 47.4255 20.0478 47.4255 19.9525C47.4255 19.7428 47.3683 19.5808 47.2539 19.4664C47.1396 19.3426 46.9966 19.2758 46.8251 19.2663C46.6631 19.2473 46.4963 19.2997 46.3248 19.4236C45.9245 19.719 45.5052 19.9525 45.0669 20.124C44.638 20.286 44.1806 20.367 43.6946 20.367C43.1323 20.367 42.6034 20.2574 42.1078 20.0382C41.6123 19.8095 41.1739 19.495 40.7927 19.0948C40.4211 18.6945 40.1304 18.2323 39.9208 17.7082C39.7111 17.1745 39.6063 16.6027 39.6063 15.9928C39.6063 15.3925 39.7111 14.8302 39.9208 14.3061C40.1304 13.7724 40.4211 13.3054 40.7927 12.9052C41.1739 12.5049 41.6123 12.1904 42.1078 11.9617C42.6034 11.733 43.1323 11.6187 43.6946 11.6187C44.314 11.6187 44.8095 11.6997 45.1812 11.8617C45.5624 12.0237 45.9293 12.2571 46.2819 12.5621C46.4534 12.6955 46.6297 12.7575 46.8108 12.7479C46.9919 12.7289 47.1443 12.6622 47.2682 12.5478C47.4017 12.4239 47.4684 12.2714 47.4684 12.0904C47.4684 12.0046 47.4588 11.9331 47.4398 11.876C47.4302 11.8092 47.4017 11.7473 47.354 11.6901C47.3159 11.6234 47.2587 11.5615 47.1825 11.5043C46.6488 11.0659 46.1151 10.7514 45.5815 10.5608C45.0573 10.3702 44.4284 10.2749 43.6946 10.2749C42.9131 10.2749 42.1889 10.4227 41.5218 10.7181C40.8547 11.0135 40.2686 11.4233 39.7635 11.9474C39.268 12.462 38.8772 13.0672 38.5914 13.7629C38.315 14.449 38.1768 15.1923 38.1768 15.9928C38.1768 16.8029 38.315 17.5557 38.5914 18.2514C38.8772 18.9471 39.268 19.557 39.7635 20.0811C40.2686 20.5957 40.8547 21.0007 41.5218 21.2962C42.1984 21.5821 42.9226 21.725 43.6946 21.725C44.3426 21.725 44.9573 21.6202 45.5386 21.4105ZM53.2912 17.2794V20.8387C53.2912 21.0484 53.2197 21.2247 53.0768 21.3676C52.9434 21.5106 52.7671 21.5821 52.5479 21.5821C52.3382 21.5821 52.1619 21.5106 52.019 21.3676C51.876 21.2247 51.8046 21.0484 51.8046 20.8387V11.1612C51.8046 10.942 51.876 10.7657 52.019 10.6323C52.1619 10.4894 52.3382 10.4179 52.5479 10.4179H55.1209C55.8357 10.4179 56.4694 10.5704 57.0221 10.8753C57.5749 11.1707 58.0037 11.5805 58.3087 12.1047C58.6231 12.6288 58.7804 13.2387 58.7804 13.9344C58.7804 14.5824 58.6231 15.159 58.3087 15.6641C58.0219 16.1391 57.6255 16.5172 57.1195 16.7983C57.0875 16.8161 57.055 16.8335 57.0221 16.8505C56.9719 16.8765 56.9209 16.9013 56.8693 16.925L59.052 20.4385C59.2235 20.7148 59.2473 20.9769 59.1235 21.2247C58.9996 21.4629 58.7852 21.5821 58.4802 21.5821C58.3468 21.5821 58.2229 21.5535 58.1085 21.4963C58.0037 21.4391 57.9132 21.3486 57.8369 21.2247L55.384 17.2727C55.3628 17.2738 55.3416 17.2747 55.3203 17.2756C55.2545 17.2781 55.1881 17.2794 55.1209 17.2794H53.2912ZM55.232 17.5576C55.1952 17.5583 55.1581 17.5587 55.1209 17.5587H53.5706V20.8387C53.5706 21.1178 53.4729 21.3649 53.2777 21.5618C53.0852 21.766 52.8325 21.8614 52.5479 21.8614C52.2672 21.8614 52.0189 21.7626 51.8215 21.5652C51.624 21.3677 51.5252 21.1194 51.5252 20.8387V11.1612C51.5252 10.8766 51.6206 10.6239 51.8248 10.4314C52.0217 10.2362 52.2688 10.1386 52.5479 10.1386H55.1209C55.8759 10.1386 56.5566 10.2998 57.1555 10.6298C57.7509 10.9485 58.2176 11.3934 58.5491 11.9625C58.8925 12.5355 59.0597 13.1959 59.0597 13.9344C59.0597 14.6291 58.8906 15.2572 58.5468 15.8101C58.2358 16.3245 57.8072 16.7333 57.2671 17.0358L59.2893 20.2911C59.5015 20.633 59.5488 20.9987 59.3733 21.3496L59.3713 21.3536C59.2866 21.5165 59.165 21.6482 59.0054 21.7369C58.8477 21.8245 58.6688 21.8614 58.4802 21.8614C58.3054 21.8614 58.1385 21.8236 57.9836 21.7461L57.9791 21.7439L57.9748 21.7415C57.819 21.6565 57.6955 21.5277 57.5993 21.3716L57.599 21.3711L55.232 17.5576ZM53.5706 15.6277H55.1209C55.5233 15.6277 55.8653 15.5537 56.1539 15.4142C56.4449 15.264 56.6676 15.0638 56.8292 14.8138C56.9897 14.5564 57.0716 14.2658 57.0716 13.9344C57.0716 13.559 56.9868 13.2373 56.8242 12.961C56.6596 12.6812 56.4349 12.4644 56.1455 12.3073C55.8589 12.1517 55.52 12.0695 55.1209 12.0695H53.5706V15.6277ZM53.2912 15.9071V11.7902H55.1209C55.5593 11.7902 55.9453 11.8807 56.2788 12.0618C56.6124 12.2429 56.8744 12.4954 57.065 12.8194C57.2556 13.1434 57.3509 13.5151 57.3509 13.9344C57.3509 14.3156 57.2556 14.6587 57.065 14.9636C56.8744 15.259 56.6124 15.4925 56.2788 15.6641C55.9453 15.8261 55.5593 15.9071 55.1209 15.9071H53.2912ZM69.1497 16.6514L69.146 16.655C68.9507 16.8363 68.7015 16.9154 68.427 16.9154H64.6037V19.9304H70.0423C70.3168 19.9304 70.566 20.0096 70.7613 20.1909C70.9576 20.3732 71.0506 20.6124 71.0506 20.8816C71.0506 21.1563 70.9606 21.4019 70.7687 21.5938L70.765 21.5974L70.7613 21.6009C70.566 21.7822 70.3168 21.8614 70.0423 21.8614H63.5811C63.3004 21.8614 63.0521 21.7626 62.8546 21.5652C62.6572 21.3677 62.5584 21.1194 62.5584 20.8387V11.1612C62.5584 10.8766 62.6538 10.6239 62.858 10.4314C63.0549 10.2362 63.302 10.1386 63.5811 10.1386H70.0423C70.3209 10.1386 70.5713 10.2251 70.7651 10.4169C70.9616 10.6014 71.0506 10.8457 71.0506 11.1183C71.0506 11.3876 70.9576 11.6268 70.7613 11.8091C70.566 11.9904 70.3168 12.0695 70.0423 12.0695H64.6037V14.9845H68.427C68.7055 14.9845 68.9559 15.071 69.1497 15.2627C69.3435 15.4446 69.4353 15.6824 69.4353 15.9499C69.4353 16.2192 69.3426 16.4586 69.1534 16.6478L69.1497 16.6514ZM68.427 15.2638C68.6462 15.2638 68.8225 15.3305 68.9559 15.4639C69.0893 15.5878 69.156 15.7498 69.156 15.9499C69.156 16.1501 69.0893 16.3168 68.9559 16.4503C68.8225 16.5741 68.6462 16.6361 68.427 16.6361H64.3244V20.2098H70.0423C70.2615 20.2098 70.4378 20.2717 70.5712 20.3956C70.7046 20.5195 70.7713 20.6815 70.7713 20.8816C70.7713 21.0913 70.7046 21.2628 70.5712 21.3962C70.4378 21.5201 70.2615 21.5821 70.0423 21.5821H63.5811C63.3714 21.5821 63.1951 21.5106 63.0522 21.3676C62.9092 21.2247 62.8377 21.0484 62.8377 20.8387V11.1612C62.8377 10.942 62.9092 10.7657 63.0522 10.6323C63.1951 10.4894 63.3714 10.4179 63.5811 10.4179H70.0423C70.2615 10.4179 70.4378 10.4846 70.5712 10.618C70.7046 10.7419 70.7713 10.9087 70.7713 11.1183C70.7713 11.3185 70.7046 11.4805 70.5712 11.6044C70.4378 11.7282 70.2615 11.7902 70.0423 11.7902H64.3244V15.2638H68.427ZM75.0911 21.1246C75.0244 21.2771 74.9243 21.3915 74.7909 21.4677C74.667 21.5439 74.5384 21.5821 74.4049 21.5821C74.1381 21.5821 73.9332 21.4677 73.7903 21.239C73.6473 21.0103 73.633 20.7673 73.7474 20.51L77.7642 10.9182C77.9071 10.5847 78.1406 10.4179 78.4646 10.4179C78.8077 10.4179 79.0412 10.5847 79.1651 10.9182L83.1962 20.5385C83.301 20.8054 83.282 21.0484 83.139 21.2676C83.0056 21.4772 82.8007 21.5821 82.5243 21.5821C82.3814 21.5821 82.2432 21.5439 82.1098 21.4677C81.9859 21.3819 81.8954 21.2676 81.8382 21.1246L81.0325 19.1234H75.9098L75.0911 21.1246ZM78.4916 12.8122L76.4127 17.894H80.5376L78.4916 12.8122ZM80.124 17.6147L78.4896 13.555L76.8288 17.6147H80.124ZM76.0973 19.4027L75.3484 21.2335L75.347 21.2366C75.259 21.4378 75.1214 21.5994 74.9335 21.7079C74.7708 21.8072 74.5932 21.8614 74.4049 21.8614C74.0405 21.8614 73.7467 21.6964 73.5534 21.387C73.3593 21.0765 73.3421 20.7361 73.4908 20.3994L77.5074 10.8082C77.5938 10.6067 77.7161 10.4357 77.8842 10.3157C78.0543 10.1941 78.2522 10.1386 78.4646 10.1386C78.6827 10.1386 78.8866 10.1922 79.0594 10.3157C79.2298 10.4374 79.3481 10.6113 79.4248 10.8152L83.455 20.4335L83.4562 20.4364C83.5902 20.7775 83.5706 21.1162 83.3739 21.4188C83.1827 21.7183 82.883 21.8614 82.5243 21.8614C82.3291 21.8614 82.1436 21.8087 81.9712 21.7102L81.9607 21.7042L81.9508 21.6974C81.7809 21.5797 81.6561 21.4213 81.579 21.2287L80.8438 19.4027H76.0973ZM85.2267 10.1386C84.9575 10.1386 84.7181 10.2313 84.5289 10.4205C84.345 10.6043 84.2612 10.8413 84.2612 11.104C84.2612 11.3671 84.3449 11.604 84.5217 11.7944L84.5287 11.802L84.5363 11.8091C84.7267 11.9859 84.9637 12.0695 85.2267 12.0695H88.035V20.8387C88.035 21.1194 88.1338 21.3677 88.3313 21.5652C88.5287 21.7626 88.777 21.8614 89.0577 21.8614C89.3384 21.8614 89.5867 21.7626 89.7841 21.5652C89.9816 21.3677 90.0804 21.1194 90.0804 20.8387V12.0695H92.8744C93.1371 12.0695 93.3741 11.9857 93.5579 11.8019C93.7471 11.6127 93.8399 11.3733 93.8399 11.104C93.8399 10.8383 93.7492 10.6018 93.558 10.4204C93.3766 10.2292 93.1401 10.1386 92.8744 10.1386H85.2267ZM85.2267 10.4179C85.0266 10.4179 84.8598 10.4846 84.7264 10.618C84.6025 10.7419 84.5406 10.9039 84.5406 11.104C84.5406 11.3042 84.6025 11.4709 84.7264 11.6044C84.8598 11.7282 85.0266 11.7902 85.2267 11.7902H88.3144V20.8387C88.3144 21.0484 88.3858 21.2247 88.5288 21.3676C88.6717 21.5106 88.848 21.5821 89.0577 21.5821C89.2673 21.5821 89.4436 21.5106 89.5866 21.3676C89.7295 21.2247 89.801 21.0484 89.801 20.8387V11.7902H92.8744C93.0745 11.7902 93.2365 11.7282 93.3604 11.6044C93.4938 11.4709 93.5605 11.3042 93.5605 11.104C93.5605 10.9039 93.4938 10.7419 93.3604 10.618C93.2365 10.4846 93.0745 10.4179 92.8744 10.4179H85.2267ZM97.9509 21.8614C97.6702 21.8614 97.4219 21.7626 97.2245 21.5652C97.027 21.3677 96.9282 21.1194 96.9282 20.8387V11.1612C96.9282 10.8766 97.0236 10.6239 97.2279 10.4314C97.4248 10.2362 97.6718 10.1386 97.9509 10.1386C98.2339 10.1386 98.4853 10.2328 98.6774 10.4347C98.8793 10.6268 98.9736 10.8782 98.9736 11.1612V20.8387C98.9736 21.1178 98.8759 21.3649 98.6806 21.5618C98.4881 21.7661 98.2355 21.8614 97.9509 21.8614ZM98.4798 10.6323C98.3464 10.4894 98.1701 10.4179 97.9509 10.4179C97.7412 10.4179 97.5649 10.4894 97.422 10.6323C97.279 10.7657 97.2076 10.942 97.2076 11.1612V20.8387C97.2076 21.0484 97.279 21.2247 97.422 21.3676C97.5649 21.5106 97.7412 21.5821 97.9509 21.5821C98.1701 21.5821 98.3464 21.5106 98.4798 21.3676C98.6227 21.2247 98.6942 21.0484 98.6942 20.8387V11.1612C98.6942 10.942 98.6227 10.7657 98.4798 10.6323ZM110.838 17.1533L110.838 17.1538L112.024 18.3451C112.165 18.1219 112.284 17.8818 112.38 17.6244L112.382 17.6203C112.578 17.1217 112.677 16.5801 112.677 15.9928C112.677 15.4055 112.578 14.8639 112.382 14.3653L112.38 14.3613C112.193 13.8622 111.923 13.4334 111.57 13.0717L111.567 13.0692C111.214 12.6978 110.793 12.4098 110.304 12.2051L110.302 12.2044C109.826 12.0015 109.297 11.898 108.711 11.898C108.125 11.898 107.591 12.0014 107.104 12.2048C106.624 12.4092 106.208 12.697 105.854 13.0691C105.509 13.4321 105.237 13.8631 105.04 14.3653C104.844 14.8639 104.744 15.4055 104.744 15.9928C104.744 16.5801 104.844 17.1217 105.04 17.6203C105.237 18.122 105.508 18.558 105.854 18.9308C106.208 19.2935 106.625 19.5818 107.106 19.796C107.592 19.9989 108.126 20.102 108.711 20.102C109.296 20.102 109.825 19.9986 110.301 19.796C110.385 19.7596 110.466 19.7211 110.545 19.6804L109.428 18.5633C109.234 18.3691 109.117 18.1345 109.117 17.8654C109.117 17.5908 109.231 17.3507 109.428 17.1533C109.622 16.9592 109.857 16.8428 110.126 16.8428C110.401 16.8428 110.641 16.9559 110.838 17.1533ZM111.002 19.7421C110.921 19.7929 110.837 19.8413 110.752 19.8873C110.642 19.9464 110.529 20.0015 110.412 20.0525C109.897 20.2717 109.33 20.3813 108.711 20.3813C108.091 20.3813 107.519 20.2717 106.995 20.0525C106.481 19.8238 106.033 19.5141 105.652 19.1234C105.28 18.7231 104.989 18.2562 104.78 17.7225C104.57 17.1888 104.465 16.6123 104.465 15.9928C104.465 15.3734 104.57 14.7968 104.78 14.2632C104.989 13.7295 105.28 13.2673 105.652 12.8766C106.033 12.4763 106.481 12.1666 106.995 11.9474C107.519 11.7282 108.091 11.6187 108.711 11.6187C109.33 11.6187 109.897 11.7282 110.412 11.9474C110.936 12.1666 111.389 12.4763 111.77 12.8766C112.151 13.2673 112.442 13.7295 112.642 14.2632C112.851 14.7968 112.956 15.3734 112.956 15.9928C112.956 16.6123 112.851 17.1888 112.642 17.7225C112.531 18.0181 112.392 18.2932 112.226 18.5478C112.174 18.6271 112.12 18.7043 112.062 18.7796L110.64 17.3508C110.488 17.1983 110.316 17.1221 110.126 17.1221C109.945 17.1221 109.778 17.1983 109.626 17.3508C109.473 17.5033 109.397 17.6748 109.397 17.8654C109.397 18.0465 109.473 18.2133 109.626 18.3657L111.002 19.7421ZM113.26 19.587C113.204 19.6621 113.146 19.7356 113.086 19.8076L113.628 20.3527C113.771 20.5052 113.842 20.672 113.842 20.853C113.852 21.0341 113.781 21.2009 113.628 21.3533C113.476 21.5058 113.304 21.5821 113.113 21.5821C112.932 21.5821 112.766 21.5058 112.613 21.3533L112.023 20.7637C111.945 20.8169 111.864 20.8682 111.782 20.9176C111.536 21.0658 111.274 21.1968 110.998 21.3105C110.312 21.5868 109.549 21.725 108.711 21.725C107.872 21.725 107.105 21.5868 106.409 21.3105C105.714 21.0246 105.113 20.6291 104.608 20.124C104.113 19.6094 103.727 19.0042 103.45 18.3086C103.174 17.6034 103.036 16.8315 103.036 15.9928C103.036 15.1542 103.174 14.3871 103.45 13.6914C103.727 12.9957 104.113 12.3953 104.608 11.8903C105.113 11.3756 105.714 10.9802 106.409 10.7038C107.105 10.4179 107.872 10.2749 108.711 10.2749C109.549 10.2749 110.312 10.4179 110.998 10.7038C111.694 10.9802 112.294 11.3756 112.799 11.8903C113.304 12.3953 113.695 12.9957 113.971 13.6914C114.247 14.3871 114.386 15.1542 114.386 15.9928C114.386 16.8315 114.247 17.6034 113.971 18.3086C113.786 18.7755 113.549 19.2016 113.26 19.587ZM111.103 10.445C110.379 10.1439 109.581 9.99561 108.711 9.99561C107.84 9.99561 107.037 10.144 106.305 10.4448C105.575 10.7349 104.942 11.1515 104.409 11.6946C103.886 12.2277 103.48 12.8601 103.191 13.5882C102.9 14.3205 102.756 15.1231 102.756 15.9928C102.756 16.8626 102.9 17.6695 103.19 18.4105L103.191 18.4117C103.48 19.1395 103.885 19.7758 104.407 20.3178L104.411 20.3215C104.943 20.8541 105.575 21.2697 106.303 21.5689L106.306 21.5701C107.038 21.8609 107.841 22.0043 108.711 22.0043C109.58 22.0043 110.379 21.861 111.102 21.5696L111.104 21.5688C111.416 21.4408 111.709 21.2915 111.986 21.1208L112.416 21.5509C112.61 21.745 112.844 21.8614 113.113 21.8614C113.388 21.8614 113.628 21.7482 113.826 21.5509C114.021 21.3557 114.134 21.1177 114.122 20.8456C114.12 20.5857 114.014 20.3555 113.832 20.1617L113.829 20.1586L113.459 19.787C113.774 19.3729 114.031 18.9141 114.231 18.4117L114.231 18.4105C114.522 17.6695 114.665 16.8626 114.665 15.9928C114.665 15.1231 114.522 14.3205 114.231 13.5883C113.941 12.8593 113.53 12.2267 112.997 11.6936C112.465 11.1511 111.832 10.735 111.103 10.445ZM118.679 21.1246C118.613 21.2771 118.513 21.3915 118.379 21.4677C118.255 21.5439 118.127 21.5821 117.993 21.5821C117.726 21.5821 117.521 21.4677 117.379 21.239C117.236 21.0103 117.221 20.7673 117.336 20.51L121.352 10.9182C121.495 10.5847 121.729 10.4179 122.053 10.4179C122.396 10.4179 122.629 10.5847 122.753 10.9182L126.784 20.5385C126.889 20.8054 126.87 21.0484 126.727 21.2676C126.594 21.4772 126.389 21.5821 126.113 21.5821C125.97 21.5821 125.831 21.5439 125.698 21.4677C125.574 21.3819 125.484 21.2676 125.426 21.1246L124.621 19.1234H119.498L118.679 21.1246ZM119.686 19.4027L118.937 21.2335L118.935 21.2366C118.847 21.4378 118.71 21.5994 118.522 21.708C118.359 21.8073 118.181 21.8614 117.993 21.8614C117.629 21.8614 117.335 21.6964 117.142 21.387C116.948 21.0765 116.93 20.7361 117.079 20.3994C117.08 20.3984 117.08 20.3975 117.08 20.3965L121.096 10.8082C121.182 10.6067 121.304 10.4357 121.472 10.3157C121.643 10.1941 121.84 10.1386 122.053 10.1386C122.271 10.1386 122.475 10.1922 122.648 10.3157C122.818 10.4374 122.936 10.6113 123.013 10.8154L127.043 20.4335L127.044 20.4364C127.178 20.7777 127.159 21.1166 126.962 21.4193C126.771 21.7185 126.471 21.8614 126.113 21.8614C125.917 21.8614 125.732 21.8087 125.559 21.7102L125.549 21.7042L125.539 21.6974C125.369 21.5797 125.244 21.4211 125.167 21.2284L124.432 19.4027H119.686ZM122.08 12.8122L120.001 17.894H124.126L122.08 12.8122ZM123.712 17.6147L122.078 13.555L120.417 17.6147H123.712Z" fill="#232426"/>
<defs>
<linearGradient id="paint0_linear_2261_13803" x1="1.31648" y1="20.1295" x2="27.1965" y2="26.2942" gradientUnits="userSpaceOnUse">
<stop offset="0.330198" stop-color="#99003D"/>
<stop offset="0.789552" stop-color="#99003D" stop-opacity="0"/>
</linearGradient>
<linearGradient id="paint1_linear_2261_13803" x1="13.8229" y1="3.35329" x2="5.17334" y2="25.1533" gradientUnits="userSpaceOnUse">
<stop offset="0.0775871" stop-color="#240E53"/>
<stop offset="1" stop-color="#34117F" stop-opacity="0"/>
</linearGradient>
<linearGradient id="paint2_linear_2261_13803" x1="17.1141" y1="1.0304" x2="5.12266" y2="13.658" gradientUnits="userSpaceOnUse">
<stop stop-color="#232426"/>
<stop offset="1" stop-color="#232426" stop-opacity="0"/>
</linearGradient>
<linearGradient id="paint3_linear_2261_13803" x1="18.8255" y1="3.61138" x2="15.8885" y2="8.95232" gradientUnits="userSpaceOnUse">
<stop stop-color="#007A7A" stop-opacity="0.16"/>
<stop offset="1" stop-color="#007A7A"/>
</linearGradient>
</defs>
</svg>
